<svg xmlns="http://www.w3.org/2000/svg" viewBox="0 0 311.92 85.28">

<defs>
<style>.cls-1,.cls-2,.cls-3,.cls-4{fill:#fff;}.cls-2{opacity:0.8;}.cls-3{opacity:0.6;}.cls-4{opacity:0.4;}</style>
</defs>
<g id="Layer_2" data-name="Layer 2"><g id="Layer_1-2" data-name="Layer 1">
<path class="cls-1" d="M0,70.57V18.27H11.06V61.45H33.48v9.12Z"/>
<path class="cls-1" d="M55.31,71.34a20.81,20.81,0,0,1-10.4-2.47,16.67,16.67,0,0,1-6.71-7,23.11,23.11,0,0,1-2.35-10.73A23,23,0,0,1,38.2,40.51a17.4,17.4,0,0,1,6.63-7.12,19.25,19.25,0,0,1,10.05-2.56,20.89,20.89,0,0,1,7.24,1.24A16.32,16.32,0,0,1,68,35.79,16.75,16.75,0,0,1,71.91,42a24.72,24.72,0,0,1,1.41,8.74v3H40.2V47H63.08a8.33,8.33,0,0,0-1-4.16A7.45,7.45,0,0,0,59.23,40a8.21,8.21,0,0,0-4.17-1,8.36,8.36,0,0,0-4.38,1.13,8.2,8.2,0,0,0-3,3,8.64,8.64,0,0,0-1.09,4.23v6.41a11,11,0,0,0,1.08,5,7.78,7.78,0,0,0,3.08,3.27,9.35,9.35,0,0,0,4.72,1.14,10.28,10.28,0,0,0,3.32-.51,6.81,6.81,0,0,0,2.58-1.53A6.64,6.64,0,0,0,63,58.67l10.06.66A13.71,13.71,0,0,1,70,65.65a15.64,15.64,0,0,1-6.08,4.19A22.76,22.76,0,0,1,55.31,71.34Z"/>
<path class="cls-1" d="M77.25,85.28V31.34H88v6.59h.48a14.44,14.44,0,0,1,2.09-3.23A10.9,10.9,0,0,1,94.12,32a12.05,12.05,0,0,1,5.5-1.12,14.83,14.83,0,0,1,7.92,2.24,15.62,15.62,0,0,1,5.8,6.72A25.73,25.73,0,0,1,115.51,51a26,26,0,0,1-2.11,11.07,15.72,15.72,0,0,1-5.72,6.82,14.68,14.68,0,0,1-8.08,2.31,12.5,12.5,0,0,1-5.38-1,11,11,0,0,1-3.61-2.64,13.34,13.34,0,0,1-2.15-3.23h-.33v21ZM87.9,51a17.62,17.62,0,0,0,1,6.1,9,9,0,0,0,2.81,4,7,7,0,0,0,4.47,1.44,7,7,0,0,0,4.49-1.47,9.06,9.06,0,0,0,2.8-4.08,17.52,17.52,0,0,0,1-6,17.33,17.33,0,0,0-1-6,8.84,8.84,0,0,0-2.78-4,7.77,7.77,0,0,0-9-.05,8.73,8.73,0,0,0-2.8,4A17.43,17.43,0,0,0,87.9,51Z"/>
<path class="cls-1" d="M119.57,70.57V31.34h10.55v6.85h.4a10.19,10.19,0,0,1,3.61-5.53A9.49,9.49,0,0,1,140,30.78a16.12,16.12,0,0,1,1.76.11,11.2,11.2,0,0,1,1.66.28v9.65a14.78,14.78,0,0,0-2.12-.41,18.92,18.92,0,0,0-2.48-.18,8.68,8.68,0,0,0-4.27,1,7.66,7.66,0,0,0-3,2.87,8.2,8.2,0,0,0-1.08,4.24V70.57Z"/>
<path class="cls-1" d="M151.29,26.29a5.91,5.91,0,0,1-4.17-1.62,5.23,5.23,0,0,1,0-7.77,6.15,6.15,0,0,1,8.32,0,5.25,5.25,0,0,1,0,7.77A5.86,5.86,0,0,1,151.29,26.29ZM145.8,70.57V31.34h10.88V70.57Z"/><path class="cls-1" d="M179.92,71.34a20,20,0,0,1-10.36-2.57,17,17,0,0,1-6.64-7.14,23,23,0,0,1-2.31-10.52A22.82,22.82,0,0,1,163,40.53a17.21,17.21,0,0,1,6.65-7.13,19.71,19.71,0,0,1,10.26-2.57,20.45,20.45,0,0,1,9,1.87A15.08,15.08,0,0,1,195,37.93a15.45,15.45,0,0,1,2.47,7.92H187.17a8,8,0,0,0-2.29-4.74,6.65,6.65,0,0,0-4.84-1.8,7.29,7.29,0,0,0-4.4,1.37,8.83,8.83,0,0,0-2.93,4,17.12,17.12,0,0,0-1,6.31,17.45,17.45,0,0,0,1,6.38,8.81,8.81,0,0,0,2.93,4,7.73,7.73,0,0,0,7.77.61,6.53,6.53,0,0,0,2.48-2.23,8.68,8.68,0,0,0,1.29-3.54h10.26A16.07,16.07,0,0,1,195,64.1a14.88,14.88,0,0,1-6,5.32A20,20,0,0,1,179.92,71.34Z"/>
<path class="cls-1" d="M219,71.34a20,20,0,0,1-10.28-2.54A17.27,17.27,0,0,1,202,61.7a22.89,22.89,0,0,1-2.35-10.59A23,23,0,0,1,202,40.47a17.27,17.27,0,0,1,6.68-7.1,22.07,22.07,0,0,1,20.56,0,17.33,17.33,0,0,1,6.68,7.1,23,23,0,0,1,2.34,10.64A22.89,22.89,0,0,1,236,61.7a17.33,17.33,0,0,1-6.68,7.1A20,20,0,0,1,219,71.34Zm0-8.43a6.74,6.74,0,0,0,4.52-1.55,9.59,9.59,0,0,0,2.75-4.22,18.59,18.59,0,0,0,.93-6.11,18.57,18.57,0,0,0-.93-6.1,9.66,9.66,0,0,0-2.75-4.24A6.7,6.7,0,0,0,219,39.13a6.86,6.86,0,0,0-4.58,1.56,9.39,9.39,0,0,0-2.79,4.24,18.57,18.57,0,0,0-.93,6.1,18.59,18.59,0,0,0,.93,6.11,9.32,9.32,0,0,0,2.79,4.22A6.9,6.9,0,0,0,219,62.91Z"/>
<path class="cls-1" d="M253.11,47.89V70.57H242.23V31.34H252.6v6.93h.46a11,11,0,0,1,4.37-5.43,13.24,13.24,0,0,1,7.43-2A13.82,13.82,0,0,1,272,32.62a12.17,12.17,0,0,1,4.73,5.1,17.18,17.18,0,0,1,1.68,7.87v25H267.51v-23a7.9,7.9,0,0,0-1.84-5.64,6.62,6.62,0,0,0-5.13-2,7.76,7.76,0,0,0-3.87,1,6.5,6.5,0,0,0-2.6,2.74A9.51,9.51,0,0,0,253.11,47.89Z"/>
<path class="cls-2" d="M296.7,13.43,291.14,19l-5.57-5.56a7.86,7.86,0,1,1,11.13,0Z"/>
<path class="cls-1" d="M298.5,15.22l-5.57,5.57,5.57,5.56a7.86,7.86,0,1,0,0-11.13Z"/>
<path class="cls-3" d="M283.78,26.35l5.56-5.56-5.56-5.57a7.86,7.86,0,1,0,0,11.13Z"/>
<path class="cls-4" d="M285.57,28.14l5.57-5.56,5.56,5.56a7.87,7.87,0,1,1-11.13,0Z"/>
</g></g></svg>